<?xml version="1.0" encoding="UTF-8"?>
<svg id="Layer_4" xmlns="http://www.w3.org/2000/svg" version="1.1" viewBox="0 0 1080 1080">
  <!-- Generator: Adobe Illustrator 29.7.1, SVG Export Plug-In . SVG Version: 2.1.1 Build 8)  -->
  <defs>
    <style>
      .st0 {
        fill: #fff;
      }
    </style>
  </defs>
  <g>
    <polygon class="st0" points="797.68 591.15 844.85 503.11 883.73 509.63 804.04 663.06 756.66 652.7 766.89 481.28 804.23 491.32 797.68 591.15"/>
    <path class="st0" d="M693.85,593.57h34.86v28.98h-35.46v38.64h46.48v36.22h-85.11v-170.55c0-.06,85.11-.06,85.11,0v33.2l-45.88,1.21v32.3Z"/>
    <path class="st0" d="M603.31,499.59l-46.73-17.89-52.63,166.2,38.64,11.37s7.31-31.86,8.26-36.4c1.34-6.36,18.3-8.09,22.11,2.55.31.88,8.62,35.75,8.62,35.75l36.13-10.35-4.15-46.4c.49,0,4.36-2.43,8.52-5.63,6.51-5,11.39-11.84,14.05-19.6,6.07-17.74,12.55-62.12-32.83-79.61ZM577.2,578.92c-1.7-.23-10.54-3.98-10.54-3.98l9.55-39.26s5.42,1.31,9.21,2.29c2.32.6,4.66,1.47,6.35,3.16,8.7,8.7,3.9,21.66,2.82,26.16-.89,3.7-2.96,7.05-6.03,9.28-3,2.18-6.47,3.02-11.37,2.34Z"/>
    <path class="st0" d="M526.65,457.13v35.02h-47.99c-.5,0-.91.41-.91.91v31.09h36.22v27.77h-36.22v70.63h-38.63v-165.42h87.53Z"/>
    <path class="st0" d="M914.18,744.49v9.7h-2.37s.29-3.66-2.13-3.66h-11.95s-.73,9.06-.6,9.06h10.11c2.4,0,5.09,2.22,5.55,2.61,4.2,3.53,4.12,11.79,1.05,16.07-3.84,5.36-17,7.27-20.79,1.56-2.44-3.68.63-7.03,2.2-7.15,0,0,.77,4.97,3.8,5.97,7.63,2.52,10.25-4.4,8.95-10.76-.75-3.71-3.45-4.75-6.36-4.75-.48,0-8.51-.01-8.51-.01l1.17-18.62h19.87Z"/>
    <path class="st0" d="M849.9,744.4v33.32c0,.77.58,1.89,1.97,1.89,1.57,0,5.27-.05,5.27-.05v3.02h-21.73v-3.02s2.53,0,4.5,0c1.51,0,2.14-1.17,2.14-1.85v-28.42c-1.58,1.72-2.98,4.08-4.7,5.03-1.82,1.01-4.04.88-4.81-.75-.33-.7-.5-2.46-.5-2.46,3.8-.26,11.65-6.73,11.65-6.73h6.21Z"/>
    <path class="st0" d="M745.78,761.62l-2.41.37s1.06-4.64-3.36-5.4c-2.12-.36-5.47.15-5.73,2.72-.56,5.46,12.69,5.48,14.63,11.32,3.55,10.71-8.23,14.29-16.55,11.73-6.25-1.92-6.95-9.45.13-9.49-1.57,7.22,10.59,9.24,10.88,3.27.25-5.35-14.2-4.88-15.11-12.61-.63-5.34,2.31-9.19,7.61-9.92,3.53-.49,10.78-.17,12.48,3.74.04.09.08.19.11.29.55,1.83-.8,3.52-2.67,3.98Z"/>
    <path class="st0" d="M901.63,548.12c-47.37,12.78-46.62,101.85-26.79,136.41,15.89,27.7,52.24,34.63,72.9,8.4,32.07-40.72,23.67-163.64-46.1-144.81ZM935.93,638.57c-.72,14.31-4.25,42.72-24.42,40.07-15.78-2.07-19.08-28.72-19.69-41.28-.75-15.35-.82-57.6,19.8-60.54,25.86-3.69,25.12,45.67,24.32,61.75Z"/>
    <path class="st0" d="M677.25,744.49h-20.81v3.02h2.95c.89,0,1.85.61,1.85,2.12l.05,26.58c0,1.89.22,3.35-2.15,3.35h-2.69v2.95h20.81c17.88-1.01,23.79-34.11,0-38.03ZM669.71,778.87v-30.45h4.89c6.96.07,9.01,6.91,9.01,13.86v.66c0,7.2-1.83,14.77-8.63,15.86-.25.04-.51.06-.77.06-1.06,0-3.99,0-4.51,0h0Z"/>
    <path class="st0" d="M785.6,780.42s-4.82.2-4.82-3.63v-34.71h-12.54v2.93s1.17-.1,2.68.05c1.15.11,2.02,1.09,2.02,2.24v9.88c-14.57-11.83-22.28,6.18-17.63,19.14,2.91,8.1,13.41,9.12,17.93,2l2.51,4.12h9.79l.06-2.01ZM771.87,775.74c-1.32,3.27-6.14,4.52-8.13,1.19-2.19-3.67-2.77-19.24,3.55-19.57,6.64-.35,6.25,14.24,4.58,18.38Z"/>
    <path class="st0" d="M928.67,760.79c-.87-8.33,8.94-22,10.87-6.64,11.63-1.89,5.4-10.8-3.9-10.28-13.88.79-16.36,19.53-13.19,30.08,3.91,13.03,23.22,12,24.33-2.01.9-11.34-8.6-15.27-18.1-11.16ZM932.33,778.55c-2.19-1.6-4.14-10.01-3.66-12.61.56-3.01,6.08-4.37,8.27-2.56,3.94,3.26,2.54,20.39-4.61,15.17Z"/>
    <path class="st0" d="M868.58,745.08c-12.22,4.97-7.3,27.89,7.58,22.07,1.51-.59,2.3-1.07,3.61-2.12.01,5.71-1.42,16.23-9.69,14.21-3.3-.81-4.63-4.98-4.63-4.98-3.77,2.72-1.59,8.44,4.97,8.89,24.28,1.66,21.9-47.72-1.84-38.06ZM874.03,763.87c-6.75-.1-5.67-15.45-.46-16.26,5.74-.89,10.59,16.41.46,16.26Z"/>
    <path class="st0" d="M723.43,768.64c3.1-18.72-23.79-21.44-25.34-2.71-.79,9.48,3.29,17.24,13.56,17.24,6.58,0,12.69-4.25,9.06-7.88-6.54,7.46-14.79,3.35-14.79-6.65h17.51ZM715.43,765.38h-9.5c0-11.18,9.5-11.32,9.5,0Z"/>
    <path class="st0" d="M814.02,768.59c3.1-18.72-23.79-21.44-25.34-2.71-.79,9.48,3.29,17.24,13.56,17.24,6.58,0,12.69-4.25,9.06-7.88-6.54,7.46-14.79,3.35-14.79-6.65h17.51ZM806.02,765.32h-9.5c0-11.18,9.5-11.32,9.5,0Z"/>
  </g>
  <g>
    <path class="st0" d="M141.48,391.19c-2.49,1.05-9.59,5.82-6.61,8.78,2.64,1.05,8.94-.83,11.28-1.47,2.15-1.13.05-8.41-4.67-7.31Z"/>
    <path class="st0" d="M148.98,393.36c2.4,2.41,9.49-5.62,9.69-6.08.21-1.37-3.11-6.37-4.43-6.25-5.24,3.58-10.02,6.85-5.25,12.33Z"/>
    <path class="st0" d="M262.42,518.41c2.99,3.69,10.34,13.65,13.25,15.8.65-.67-1.79-5.44-2.6-13.87-.03-.3-.13-.6-.3-.85-2.11-3.14-10.34-9.6-13.75-11.17-5.57,2.15,1.28,7.85,3.4,10.09Z"/>
    <path class="st0" d="M216.58,440.75c-2.6.41-8.55-.3-11.29-.82-3.73-.71-7.93-3.31-11.74-1.48,1.02,2.84,6.61,5.86,9.02,7.72,1.09.51,10.61,2.26,11.92,2.22,6.59-.08,14.24-13.29,2.09-7.63Z"/>
    <path class="st0" d="M211.53,514.52c1.15-3.84-5.92-13.12-7.98-13.55-1.89-.14-6.46,4.17-7.59,6.79-5.07,4.81-7.61,10.32-3.3,16.9,5.2,2.34,15.32-7.2,18.87-10.14Z"/>
    <path class="st0" d="M158.27,452.77c1.06.12,2.07.2,3.06.29-1.06-.11-2.08-.21-3.06-.29Z"/>
    <path class="st0" d="M146.9,401.45c-3.79-.59-7.4,5.13-10.88,5.86-3.46-1.3-7.82-7.1-11.36-3.44-4.03,4.17,3.65,9.09,3.7,11.65.02,1.3-.64,2.56-1.67,3.27-5.42,5.16-6.12,13.87-6.65,21.4-1.95,8.68,10.23,13.45,12.12,3.32,1.19-4.64,1.09-8.48,3.07-13.23,2.95-8.86,12.19-19.81,11.67-28.84Z"/>
    <path class="st0" d="M168.66,383.97c14.21-12.54,45.77-15.78,56.49,1.96,30.31-44.62-42.21-18.49-56.49-1.96Z"/>
    <path class="st0" d="M215.28,486.74c-2.47-1.04-2.13-2.76-5.37-1.14-2.73,1.8-6.83,5.71-5.44,9.31,6.46,6.31,7.95,21.14,19.34,13.4,13.31-4.98,1.76-21.58-8.53-21.56Z"/>
    <path class="st0" d="M169.8,374.13c-2.45-6.41-12.16,1.43-10.69,5.84.8.81,2.71,6.3,4.45,5.35,1.31-5.02,10.36-5.12,6.23-11.19Z"/>
    <path class="st0" d="M427.78,424.84c-91.54-54.47-130.69,43.83-210.19,51.22,2.81-16.11,29.21-26.52,24.8-42.85-1.35-1.59-6.25-11.7-8.68-10.32-4.34,4.88-7.78,12.35-7.22,18.97-.8,5.16-10.16,14.12-15.08,15.77-7.54,1.63-12.81-11.33-18.28-13.46-4.43-2.01-8.11,5.03-11.61,5.96,6.57-8.35,12.2-18.4,17.46-16.65,8.39,3.49,12.05,5.59,21.82,2.91,2.01-6.38,6.16-10.71,10.4-15.9.35-4.17-6.82-2.96-9.45-4.5-7.95-2.86-5.33-11.07-.75-15.85,1.65.72,5.48,2.15,7.33,4,2.62,1.13,1.96-8.27.09-9.89-.7-.8-.87-2.19-1.38-3.19-1.31-7.68,13.06-13.62,10.57-24.89-3.7-7.56-18.06-9.89-24.33-8.01-16.53,9.06-17.58-8.29-29.71-13.92-17.61-1.07-76.91,36.13-68.4,60.3,2.46,3.16,9.23,10.48,6.02,16.06-4.02,8.59-6.86,14.15-6.52,24.99,2.11,8.12,13.89,10.06,21.35,7.31,6.51-.85,12.79-.95,22.14-.13,16.31-1.31,34.11,15.54,38.37,31.13,2.49,20.2-21.68,30.99-2.19,63.39,8.82,13.54,24.68,13.88,35.39,25.16,11.93,10.22,5.97,14.64-.99,24.53h.01c-24.33,26.62-65.71,52.81-61.07,93.22,2.13,8.14.6,18.53,6.56,24.98,9.79,6.99,22.36,6.56,21.51-7.66-.05-.77-.21-1.53-.47-2.26-4.12-11.56-6.09-23.75-10.97-34.98,14.3,11.66,2.56,11.35,26.45-5.48,18.25-13.74,41.07-22.75,55.68-40.76,1.2-2.78-12.01-6.5-14.45-8.46-1.8-.85-6.31-1.11-4.73-4.12,6.9,2.71,34.02,10.6,39.4,13.75,6,14.9,13.12,25.93,18.29,39.63,1.63,4.87,2.03,10.47,4.69,15.3,13.61,20.57,6.84,25.98-15.33,26.18-12.28-1.68-25.11,1.49-33.74,8.7-.45.37-.65.97-.52,1.54,1.15,4.76,7.06,13.62,12.5,11.78,16.66-4.35,34.25-7.89,51.2-11.77,12.07-3.85,35.42-4.55,31.31-22.64-5.26-19.62-10.77-39.5-14.99-59.42-6.5-25.97-32.19-43.45-35.98-70.36,12.19,6.42,25.58,3.01,38.98,7.03,16.42,5.46,30.33,26.94,46.87,10.78,6.45-6.17-4.81-7.17-8.46-9.13-1.74-.93-10.48-7.97-9.1-9.97,3.67-1.1,6.6.49,10.29-.93,3.69-1.25,22.51,10.31,22.56,3.27-3.14-2.59-14.39-5.22-15.43-5.59-37.18-3.86-68.44,7.97-100.21-20.39-1.06-.78-5.11-4.65-8.16-6.66-1.6-1.05-2.48-2.89-2.33-4.79.3-3.96,1.18-5.76-1.25-10.09-1.02-1.78-3.72-3.49-6.42-5.05-.89-.51-1.67-1.19-2.32-1.99-4.14-5.12-14.27-11.92-21.45-16.72-.82-.55-1.29-1.5-1.21-2.48.07-.81.24-1.5.55-2.09s.41-1.21.24-1.83c-1.23-4.62-3.41-13.1-3.94-12.77-10.45-.78-5.69,21.87,2.37,21.07,5.66.69,18.2,10.55,23.2,16.12.42.46.88.87,1.39,1.23,11.85,8.49,1.33,17.55,16.46,33.74,1.76,2.36,9.78,10.15,2.38,7.75-4.73-3.07-10.42-13.58-15.58-17.01-6.91-6.92-11.7-18.34-20.24-22.77-.33.07-4.56,3.28-5.42,3.79-14.05,8.58-32.13,12.42-46.36,20.58-4.87,4.28.38,11.31,4.97,13.49,6.92,3.29,10.86.7,17.19-2.35,9.89-2.48,37.28-27.87,41.89-11.82,4.51,9.84-24.2,14.89-30.88,19.75-3.61,1.75-9.06,1.93-5.44,7.33,2.59,3.16,4.85,7.58,8.48,5.2,1.11-.73,2.26-1.42,3.47-1.97,11.83-5.41,55.27-25.49,36.8-4.68-9.41,7.56-33.62,7.11-38,19.18-.49,1.36.54,2.78,1.99,2.72,18.34-.79,36.19-14.73,53.43-17.97,6.32,4.48-24.27,11.02-27.65,13.14-6.11,2.27-11.65,5.61-18.17,6.93-5.24.93-10.18.27-14.75,3.82,15.56-22.21-31.06-29.64-38.56-46.51-16.1-26.77-3.21-55.26,22.19-68.8,13.47-.49,12.04-.82,28.63-4.91-2.1,2.81-.47,6.43.77,13.71.13.78.62,1.47,1.33,1.83,6.98,3.54,25.25-15.02,31.85-17.83,9.53-6.09,19.95-11.91,30.24-16.44,9.61-7.42,17.51-17.17,28.61-22.47,3.77-2.54,5.35-5.36,10.31-6.42,10.84-2.34,16.56,8.54,26.3,6.49,18.28-1.31,12.69,18.25,19.8,8.35,13.66-22.28,19.67-8.01,31.47-14.23ZM195.31,410.24c-3.31,2.8-2.42,8.39-7.03,8.6-1.05-1.02,2.23-9.58,2.53-11.34.36-2.05.11-4.26.73-6.39.22-.76.88-1.32,1.66-1.45,11.48-1.94,15.69,4.91,2.1,10.57ZM154.16,402.98c.79,6.61,15.73,24.63,6.13,28.6-5.63.81-9.61-6.74-14.93-5.69-6.13,2.21-10.54,11.71-8.54,17.77,1.39,2.72,11.04,6.93,14.58,7.91-6.65-.11-14.48-.2-15.9-.03-6.49,2.3-14.62.99-17.64-5.44-2.72-6.53,1.13-12.8,2.34-19.22,1.13-4.44,5.96-8.36,3.64-13.28-2.01-3.21-3.53-6.03-5.98-9.33-10.8-26.13,52.91-54.64,60.4-58.36,10.32-3.67,15.42,13.56,22.63,15.52,7.57,1.48,16-3.98,25.11-2.22,12.01,3.51,11,14.82,4.16,22.98-3.78,2.79-5.86,8.33-3.85,11.62,3.63,4.96,2.79,7.48,2.17,9.13-1.11-.52-3.73-3.21-6.95-3.37,2.61-2.57,3.76-2.59.39-9.31-5.79-11.52-10.85-12.77-23.31-12.4-11.83-.57-46.78,11.04-44.45,25.12ZM185.22,391.34c1.82-1.99,2.89-5.71,6.17-4.45,1.91,3.72-2.39,5.18-4.23,7.28-1.04,1.58-2.34,4.47-4.29,4.68-.92.1-1.72-.56-1.91-1.46-.6-2.89,2.64-4.27,4.25-6.04ZM323.35,696.27c3.75,1.68,19.42,10.43,4.74,8.31-5.8.04-11.8.79-17.76,1.49,15.78-3.16,6.34-17.34.16-26.41-.13-5.71-2.34-10.23-4.64-15.2-2.54-5.95-3.53-11.24-6-16.85,2.67,2.54,15.19,28.37,14.69,14.18-6.11-15.75,2.95-19.29,5.72-2.19,1.16,6.09,3.27,17.73,2.63,23.53-.51,4.62-3,8.72.45,13.14ZM311.68,610.5c3.49.95,7.02,5.32,10.46,9.13-12.19-7.66-24.22-13.62-35.7-1.66,5.61-7.37,15-11.01,25.24-7.46ZM281.84,584.83c4.62-2.44,4.67,9.7,6.62,10.58,2.62-2.68,4.53-6,7.26-8.58.77-.73,4.47-4.11,5.29-3.3.35,3.54-3.24,5.85-5.03,8.39-6.29,10.85-10.15,15-12.7-.57-.44-1.6-2.45-5-1.43-6.53ZM265.88,590.69c.1,2.47,4.51,10.32,3.36,12.14-1.77.89-3.3.6-4.12-1.25-.43-1.14-3.38-15.15.76-10.89ZM233.21,639.43c-3.58,1.33-28.74,20.67-27.68,11.35.41-1.98,3.28-2.19,4.92-3.03,4.5-2.3,8.96-4.54,13.5-6.75,2.18-.99,9.85-6.87,9.25-1.57Z"/>
    <path class="st0" d="M169.74,369.74c3.31,10.31,15.35-.99,20.89-4.26,2.66-1.59,8.82-2.96,3.6-6.53-7.93-2.88-20.65,3.74-24.48,10.79Z"/>
    <path class="st0" d="M134.79,391.1c17.38-12.92,35.95-26.93,52.55-39.75-1.03-3.45-4.37-5.71-8.05-4.7-18.81,6.49-50.12,27.6-60.48,45.64-4.62,15.33,11.51,4.45,15.98-1.19Z"/>
    <path class="st0" d="M378.02,437.94c-11.69,8.81-22.95,17.25-35.73,24.48-6.03,4.25-13.39,11.59-21.5,9.5-4.27-9.22,15.24-16.9,6.4-22.16-5.56,5.57-14.63,11.2-17.72,19.59-8,41.76,68.13-28.38,80.24-33.01,1.13-.94,1.14-2.45.38-3.61-4.17-2.21-9.14,3.35-12.08,5.2Z"/>
    <path class="st0" d="M246.05,498.05c-1.23.89-2.53,2.9-3.44,3.52-6.95,2.82-13.87,7.83-20.7,11-2.65,1.26-7.57,1.25-6.11,5.35.25.42,1.27.85,1.77.84,9.11-2.02,18.88-6.17,27.88-9.07,6.48-2.37,12.53-.59,5.3-8.37-.09-.1-.2-.19-.32-.26-.88-.58-1.89-1.68-2.45-2.6-.4-.67-1.3-.86-1.93-.4Z"/>
    <g>
      <path class="st0" d="M607.55,334.88c-12.15-22.81-31.33-38.18-51.57-53.24-7.15-5.32-14.84-12.49-22.78-16.41-.7-.35-5.3-2.26-5.69-2.29-1.57-.09-2.62,2.77-4.49,1.67-.25-.14-2.32-3.27-2.95-3.87-6.19-5.84-26.69-12.07-35.33-14.43-10.87-2.97-22.16-5.43-33.24-7.71-7.34-1.51-13.59-2.29-20.84-3.38-2.29-.35-5.11-.03-3.83,2.94,1.21,2.79,6.87,1.8,9.9,2.43,11.34,2.34,42.57,18.43,45.57,30.17.58,2.27-.05,5.38,1.91,7.34,12.47,4.33,26.41,9.05,36.92,17.24,2.31,1.79,8.76,8.22,9.54,10.72.46,1.48.23,7.2.41,7.53.18.32,1.81,1.12,2.37,1.56,3.96,3.13,9.78,4.05,14.69,6.01,26.55,10.61,35.53,29.24,40.72,56.16.37,1.89,1.36,6.28,1.42,7.87.11,2.97-1.46-.66-2.1-2.08-2.64-5.85-5.28-16.6-7.25-23.4-5.85-20.19-22.64-35.04-43.37-38.97-4.57-.87-4.88-.59-8.2,2.57-4.02,3.82-7.5,8.38-11.48,12.3-3.14,3.09-7.76,5.14-8.18,9.88-.2,2.26.83,11.36,1.58,13.43,1.3,3.57,8.48,2.91,11.75,3.66,11.96,2.74,28.21,17.66,33.54,28.54,1.25,2.55,2.87,9.02,5.12,10.74,2.77,2.11,13.39,1.6,17.62,2.63,12.98,3.17,25.9,16.83,36.32,24.89,1.18.91,3.79,3.29,3.77.24-.02-3.58-5.73-8.79-5.27-9.6,1.15-2.06,6.41,4.39,7.43,3.65,3.22-8.37,3.57-17.32,2.64-26.19-2.28-21.86-6.26-43.1-16.65-62.61ZM504.89,267.15c-2.75-.05-9.67,3.98-11.78,2.98-1.08-.51-1.41-1.76-.79-2.78.88-1.45,4.43-1.07,5.71-1.33,1.08-.23,7.7-2.21,8.17-1.74.1,1.31.18,2.5-1.31,2.87ZM564.4,294.95c-.17.72-1.51,3.45-1.98,3.98-2.44,2.75-9.66,5.96-13.04,8.31-1.72,1.19-2.69,3.71-5.31,3.27-1.03-.97,4.68-5.9,5.52-6.59,4.45-3.64,9.96-6.54,14.52-10.13.94.67.43.61.3,1.16ZM574.77,388.55c-1.13,2.54-3.61,7.64-5.4,9.57-.34.37-2.54,1.64-2.84,1.34.45-4.19,3.61-7.52,5.36-11.14,1.77-3.65,2.6-7.79,4.1-11.31.3-.71,1.87-4.1,2.86-3.08-.16,4.98-2.08,10.09-4.09,14.62ZM600.49,344.7c-.89,7.04-1.46,14.01-2.31,21.03-.21,1.75-.86,3.6-2.74,4.15-2.69-.71-1.02-3.17-.78-5.03,1.21-9.4,2.45-18.76,4.03-28.12.26-1.14,1.01-1.73,2.18-1.55,1.62,3.57.06,6.11-.38,9.53Z"/>
      <path class="st0" d="M574.02,289.65c1.47-.4,2.4-2.59,3.29-3.8,6.3-8.63,16.71-16.8,20.67-21.85-.27-.25-9.22,5.19-11,6.83-2.55,2.34-16.85,12.19-17.45,15.2-.03.17,3.52,3.88,4.49,3.62Z"/>
      <path class="st0" d="M488.95,282.19c-2.41-.69-8.29-.93-9.83-2.05-1.83-1.33-.64-2.08-.64-3.73-.01-6.14-1.31-8.68-5.97-12.56-9.01-7.5-17.67-13.32-28.72-17.52-2.55-.97-11.72-4.71-13.78-3.42-.74.47-.3.87-.08,1.42.84,2.13,3.42,4.01,4.69,5.88,4.24,6.29,4.35,16.65,5.58,23.93.26,1.51.99,6.05,2.16,6.67,1.7.32,3.53-1.64,5.2-2.32,1.89-.77,4.43-1.22,6.48-1.88,1.46-.47,4.54-2.55,5.95-1.56l.42,1.33-.45.44-15.85,6.62c.97,3.36,3.79,3.71,6.32,5.57,5.13,3.77,12.74,9.56,16.43,14.6,1.25,1.7,3.62,5.26,4.02,7.22.46,2.23-.65,8.06,1.16,9.41,3.04.93,6.85,1.12,9.82,2.07,2.72.87,5.16,2.96,7.67,4.22,3.55,1.77,7.21,3.28,10.72,5.11,6.71-2.91,14.13-6.34,19.81-11,4.94-4.05,10.03-9.35,6.41-16.08-3.36-6.23-30.2-20.27-37.52-22.36ZM512.31,304.08c-.36,1.05-6.92,2.43-8.44,3.01-3.64,1.39-8.06,3.14-11.63,4.66-4.08,1.74-7.7,5.21-12.47,4.49l.29-1.34c5.53-2.44,10.97-5.3,16.59-7.54,3.28-1.31,9.4-3.86,12.6-4.57,1.04-.23,2.06-.25,3.11-.19-.03.48.1,1.04-.05,1.49Z"/>
    </g>
    <path class="st0" d="M186.56,741.35c2.02-21.03,12.53-10.63-14.99-24.95-10.61.41-.16,18.71-6.12,25.5-4.73,8.96-14.09,11.96-21.42,18.21-5.83,4.65-15.57,16.55-18.28,22.01,17.95,4.48,30.2-4.66,45.63-13.16,14.52-4.25,22.59-11.56,15.18-27.61ZM157.59,765.3c-13.95.69,1.73-14.67,7.29-15.25.93-.28,7.21,2.64,7.14,6.29-.05,2.68-13.45,8.66-14.43,8.96ZM177.08,753.93c-1.23-.57-9.9-5.52-9.3-7.47.25-.5,6.12-4.16,6.75-4.32,9.94.71,14.56,9.08,2.55,11.79ZM179.22,733.23c-2.47.33-2.94-1.53-4.61-2.83-.95-.74-2.15-.77-2.99-1.85-2.1-2.66-.34-6.92.41-9.82,1.38-1.24,12.33,6.18,14.32,7.01.89,1.37-5.59,7.29-7.12,7.49Z"/>
    <path class="st0" d="M264.22,767.17c-8.41-4.06-12.35-17.04-14.25-25.38-.66-5.14,2.43-5.75,6.56-7.01,2.8-1.42,11.61-.98,8.54-6.03-3.04-1.87-10.33-14.66-15.04-11.21-8.22,5.88-24.02,12.82-32.45,18.35-.58,11.98,22.78,27.46,30.59,36.33,6.07,5.2,10.45,6.88,18.62,5.39,7.27-1.43,3.22-10.62-2.56-10.44ZM234.09,740.51c-1.5-.69-4.21-4.38-6.37-6.64-1.25-2.29,6.94-4.61,6.63-4.73,2.51.82,5.5,5.95,5.37,8.62-.4,1.38-4.14,3.43-5.63,2.75ZM247.74,753.32c-2.43.45-3.48-1.78-5.15-2.84-10.77-4.07-4.64-5.75,1.46-9.73.4-.13.57.17.84.38.41,1.57,7.62,11.79,2.85,12.19ZM247.94,726.2c-4.67-5.13-.39-5.22,3.99-6.61,4.55-.24,7.68,5.66,10.44,8.92.29,1.9-6.36,2.24-7.81,2.09-3.09-.32-4.66-2.15-6.61-4.39Z"/>
    <path class="st0" d="M531.06,313.55c-1.86,1.33-40.29,35.21-41.67,36.32-25.94,20.83-53.61,44.85-79.07,66.26-.26.22,2.43,2.4,2.43,2.4.04-.03,12.32-12.3,17.18-16.27,17.44-14.25,34.28-28.73,51.77-42.89,3.6-2.91,45.75-40.71,49.25-43.03.66-.44,1.85-1.1,2.51-1.38l-2.41-1.4Z"/>
  </g>
</svg>